<?xml version="1.0" encoding="UTF-8"?>
<!DOCTYPE svg PUBLIC "-//W3C//DTD SVG 1.1//EN" "http://www.w3.org/Graphics/SVG/1.1/DTD/svg11.dtd">
<!-- Creator: CorelDRAW (Evaluation Version) -->
<svg xmlns="http://www.w3.org/2000/svg" xml:space="preserve" width="14.8708mm" height="5.1108mm" version="1.1" shape-rendering="geometricPrecision" text-rendering="geometricPrecision" image-rendering="optimizeQuality" fill-rule="evenodd" clip-rule="evenodd"
viewBox="0 0 1019.11 350.25"
 xmlns:xlink="http://www.w3.org/1999/xlink"
 xmlns:xodm="http://www.corel.com/coreldraw/odm/2003">
 <g id="Layer_x0020_1">
  <metadata id="CorelCorpID_0Corel-Layer"/>
  <g id="_2381595601712">
   <path fill="#FEFEFE" d="M195.5 200.66c-1.66,-1.62 -2.83,-3.67 -3.37,-5.93l-4.64 -19.21c-1.56,-6.44 -5.9,-11.85 -11.86,-14.75l-23.88 -11.65c-1.53,-0.75 -2.86,-1.84 -3.9,-3.19 -9.37,-12.33 -2.82,-22.64 4.59,-26.21l94.42 -32.3c17.46,-3.69 26.97,6.88 21.44,23.85l-41.12 88.14c-8.57,13.64 -20.48,12.14 -31.69,1.25zm46.28 121.5l117.51 -251.89c15.8,-48.5 -11.36,-78.73 -61.27,-68.17l-269.86 92.32c-21.18,10.2 -39.89,39.67 -13.11,74.9 2.94,3.87 6.76,6.99 11.13,9.12l68.25 33.29c17.02,8.3 29.44,23.77 33.87,42.17l13.25 54.92c1.56,6.44 4.91,12.31 9.66,16.93 32.02,31.11 66.06,35.4 90.57,-3.59z"/>
   <path fill="#FEFEFE" d="M354.3 15.26c-22.14,16.58 -50.91,41.68 -86.04,79.47 2.04,4.22 2.21,9.88 0.04,16.54l-41.11 88.14c-8.58,13.64 -20.49,12.14 -31.7,1.25 -1.66,-1.62 -2.83,-3.67 -3.37,-5.93l-1.74 -7.21c-14.77,19.2 -30.24,40.18 -46.42,63.13 0,0 -6.35,10.74 -9.87,27.27l7.45 30.9c1.56,6.44 4.91,12.31 9.66,16.93 32.02,31.11 66.06,35.4 90.57,-3.59l117.51 -251.89c7.65,-23.48 5.21,-42.65 -4.98,-55.01z"/>
   <path fill="#FEFEFE" d="M106.96 252.67l-89.45 50.7 66.43 -78.19c0,0 17.3,5.28 23.03,27.49z"/>
   <path fill="#FEFEFE" d="M99.16 301.6l-41.81 23.7 31.05 -36.54c0,0 8.09,2.47 10.76,12.84z"/>
   <path fill="#FEFEFE" d="M41.81 236.38l-41.81 23.7 31.05 -36.55c0,0 8.09,2.47 10.76,12.85z"/>
   <path fill="#FEFEFE" d="M851.22 222.75c-9.39,38.11 -71.66,24.77 -59.2,-17.99 10.34,-35.44 69.55,-23.6 59.2,17.99zm27.78 -104.74l-28.74 0 -0.38 46.07c-5.37,-1.27 -7.28,-3.71 -12.64,-5.56 -12.64,-4.29 -30.85,-3.3 -42.54,1.81 -57.48,25.5 -35.83,112.84 17.43,112.43l12.84 0.23c13.22,-0.27 20.88,-7.05 28.93,-11.53 4.79,10.62 0.58,8.68 25.68,8.72l-0.58 -152.17z"/>
   <path fill="#FEFEFE" d="M401.14 215.74c1.15,-7.92 9.77,-28.89 13.6,-39.88l4.79 -9.98c0,-0.45 0.38,-0.5 1.34,-0.9l17.43 51.22 -37.17 -0.45zm-9.58 26.9l56.14 0.04c3.07,3.89 9.2,20.8 10.92,27.4l33.53 -0.54c-9.96,-24.55 -19.55,-48.24 -29.32,-73.15 -2.87,-7.5 -27.01,-70.16 -30.85,-71.11l-24.91 0c-4.41,1.17 -53.84,130.74 -58.82,144.71l32.57 0 10.73 -27.35z"/>
   <path fill="#FEFEFE" d="M952.19 184.14c39.47,-9.72 50.39,52.89 13.8,60.35 -19.93,4.07 -34.68,-7.37 -37.36,-23.73 -3.45,-21.02 7.28,-32.59 23.57,-36.62zm64.95 43.04c18.59,-75.5 -100.4,-101.9 -117.84,-25.82 -17.05,74.77 98.29,104.43 117.84,25.82z"/>
   <path fill="#FEFEFE" d="M639.3 159.41c-1.54,50.32 -10.73,114.01 52.49,113.93 65.15,-0.05 52.69,-67.63 52.31,-114.87l-29.51 1.03c-3.06,43 9.96,85.36 -22.8,85.53 -19.73,0.14 -22.42,-13.51 -22.42,-32.63 0,-17.68 0.38,-35.53 0,-53.76l-30.08 0.77z"/>
   <polygon fill="#FEFEFE" points="505.95,118 505.76,270.03 535.26,269.94 534.88,118 "/>
   <path fill="#FEFEFE" d="M590.44 270.03c-0.19,-74.41 -8.05,-83.77 36.98,-84.08l-0.57 -27.9c-25.29,-1.03 -27.02,2.67 -41.2,13.16 -3.26,-3.53 -4.41,-7.96 -5.74,-12.71l-19.35 0.59 0.19 110.85 29.69 0.09z"/>
   <polygon fill="#FEFEFE" points="824.97,274.42 824.97,272.97 812.13,272.75 812.13,274.42 "/>
  </g>
 </g>
</svg>
